<?xml version="1.0" ?><svg enable-background="new 0 0 24 24" id="Layer_1" version="1.1" viewBox="0 0 24 24" xml:space="preserve" xmlns="http://www.w3.org/2000/svg" xmlns:xlink="http://www.w3.org/1999/xlink"><g><path d="M18.2313232,12.9765625l2.9689331,3.9246216L22,16.3015747l-3.2335205-4.2781372   l-3.5679321-0.3398438l3.5864868-0.7314453l3.2142944-4.2531128L21.199585,6.0994263l-2.9868164,3.9484253l-4.3651733,0.8908691   c0.0008545-0.020874-0.0006104-0.0415649-0.0003662-0.062439L19,6.7397461V0h-1v6.2602539l-4.4572754,3.5777588   c-0.0513916-0.0779419-0.1019287-0.1566772-0.1652832-0.2266846c-0.031311-0.0346069-0.0700684-0.0593262-0.1038208-0.0908813   c0.2462158-0.5441895,0.3637085-1.2939453-0.1920776-1.868103c-0.190918-0.1977539-0.5073242-0.203125-0.7070313-0.0117188   c-0.1982422,0.1918945-0.2036133,0.5087891-0.0117188,0.7070313c0.1832886,0.1894531,0.1105347,0.4902344,0.0143433,0.7166138   c-0.2481689-0.0473022-0.5057983-0.0472412-0.7539673,0c-0.0963135-0.2263184-0.1693726-0.5270386,0.0140381-0.7166138   c0.1918945-0.1982422,0.1865234-0.5151367-0.0117188-0.7070313c-0.1982422-0.1914063-0.5146484-0.1870117-0.7070313,0.0117188   c-0.555603,0.5740356-0.4380493,1.3234863-0.1918335,1.8679199c-0.0338135,0.0316162-0.0726929,0.0563965-0.1040649,0.0910645   c-0.0631714,0.0698242-0.1135254,0.1483154-0.1647949,0.2260132L6.0013428,6.2602539V0h-1v6.7397461l5.1514282,4.135437   c0.0001831,0.0212402-0.0012817,0.0422974-0.0003662,0.0635376l-4.3651733-0.8908691L2.800415,6.0994263L2.0006714,6.6990356   l3.2142944,4.2531128l3.5864868,0.7314453l-3.5679321,0.3398438L2,16.3015747l0.7997437,0.5996094l2.9689331-3.9246216   l4.5334473-0.4317627l0.015686,0.1569214c-0.1395264,0.119873-0.2730103,0.25354-0.4021606,0.3966675l-4.9143066,3.1271973V24h1   v-7.2255859l2.6975098-1.7163696C8.253479,16.0860596,8,17.1782227,8,18c0,2.2055664,1.7944336,4,4,4s4-1.7944336,4-4   c0-0.8220825-0.2536621-1.9147339-0.6994019-2.9431152L18,16.7744141V24h1v-7.7744141l-4.9173584-3.1291504   c-0.1286011-0.142395-0.2615356-0.2753906-0.4004517-0.3947144l0.015686-0.1569214L18.2313232,12.9765625z" fill="#F47920" id="base_color_3_"/><g id="light_foil_3_"><path d="M12.3771362,9.06427c0.3341675,0.0636597,0.6447144,0.2210083,0.8964844,0.4561768    c0.2462158-0.5441895,0.3637085-1.2939453-0.1920776-1.868103c-0.190918-0.1977539-0.5073242-0.203125-0.7070313-0.0117188    c-0.1982422,0.1918945-0.2036133,0.5087891-0.0117188,0.7070313C12.5460815,8.5371094,12.4733276,8.8378906,12.3771362,9.06427z" fill="#FFFFFF" opacity="0.3"/><path d="M11.6231689,9.06427c-0.0963135-0.2263184-0.1693726-0.5270386,0.0140381-0.7166138    c0.1918945-0.1982422,0.1865234-0.5151367-0.0117188-0.7070313c-0.1982422-0.1914063-0.5146484-0.1870117-0.7070313,0.0117188    c-0.555603,0.5740356-0.4380493,1.3234863-0.1918335,1.8679199C10.9784546,9.2851563,11.2890015,9.1279297,11.6231689,9.06427z" fill="#FFFFFF" opacity="0.3"/><path d="M12,12c0.6149292,0,1.1801758,0.2705688,1.6821899,0.7017212l0.1659546-1.6592407    c0.0522461-0.5209961-0.1196289-1.0429688-0.4707031-1.4311523c-0.703125-0.7773438-2.0517578-0.7773438-2.7548828,0    c-0.3510742,0.3881836-0.5229492,0.9101563-0.4707031,1.4311523l0.1659546,1.6592407C10.8198242,12.2705688,11.3850708,12,12,12z" fill="#FFFFFF" opacity="0.2"/><path d="M12,12c-2.3505859,0-4,3.8925781-4,6c0,2.2055664,1.7944336,4,4,4s4-1.7944336,4-4    C16,15.8925781,14.3505859,12,12,12z M13.5,17h-1v2h-1v-2h-1v-1h1v-1h1v1h1V17z" fill="#FFFFFF" opacity="0.1"/><polygon fill="#FFFFFF" opacity="0.3" points="13.5,16 12.5,16 12.5,15 11.5,15 11.5,16 10.5,16 10.5,17 11.5,17 11.5,19 12.5,19     12.5,17 13.5,17   "/></g></g><g/><g/><g/><g/><g/><g/><g/><g/><g/><g/><g/><g/><g/><g/><g/></svg>